<svg width="83" height="13" viewBox="0 0 83 13" fill="none" xmlns="http://www.w3.org/2000/svg">
<path d="M9.72656 6.33594V10.5C9.58594 10.7083 9.36198 10.9427 9.05469 11.2031C8.7474 11.4583 8.32292 11.6823 7.78125 11.875C7.24479 12.0625 6.55208 12.1562 5.70312 12.1562C5.01042 12.1562 4.3724 12.0365 3.78906 11.7969C3.21094 11.5521 2.70833 11.1979 2.28125 10.7344C1.85938 10.2656 1.53125 9.69792 1.29688 9.03125C1.06771 8.35938 0.953125 7.59896 0.953125 6.75V5.86719C0.953125 5.01823 1.05208 4.26042 1.25 3.59375C1.45312 2.92708 1.75 2.36198 2.14062 1.89844C2.53125 1.42969 3.01042 1.07552 3.57812 0.835938C4.14583 0.591146 4.79688 0.46875 5.53125 0.46875C6.40104 0.46875 7.1276 0.619792 7.71094 0.921875C8.29948 1.21875 8.75781 1.63021 9.08594 2.15625C9.41927 2.68229 9.63281 3.28125 9.72656 3.95312H8.21875C8.15104 3.54167 8.01562 3.16667 7.8125 2.82812C7.61458 2.48958 7.33073 2.21875 6.96094 2.01562C6.59115 1.80729 6.11458 1.70312 5.53125 1.70312C5.00521 1.70312 4.54948 1.79948 4.16406 1.99219C3.77865 2.1849 3.46094 2.46094 3.21094 2.82031C2.96094 3.17969 2.77344 3.61458 2.64844 4.125C2.52865 4.63542 2.46875 5.21094 2.46875 5.85156V6.75C2.46875 7.40625 2.54427 7.99219 2.69531 8.50781C2.85156 9.02344 3.07292 9.46354 3.35938 9.82812C3.64583 10.1875 3.98698 10.4609 4.38281 10.6484C4.78385 10.8359 5.22656 10.9297 5.71094 10.9297C6.2474 10.9297 6.68229 10.8854 7.01562 10.7969C7.34896 10.7031 7.60938 10.5938 7.79688 10.4688C7.98438 10.3385 8.1276 10.2161 8.22656 10.1016V7.55469H5.59375V6.33594H9.72656ZM11.625 7.86719V7.6875C11.625 7.07812 11.7135 6.51302 11.8906 5.99219C12.0677 5.46615 12.3229 5.01042 12.6562 4.625C12.9896 4.23438 13.3932 3.93229 13.8672 3.71875C14.3411 3.5 14.8724 3.39062 15.4609 3.39062C16.0547 3.39062 16.5885 3.5 17.0625 3.71875C17.5417 3.93229 17.9479 4.23438 18.2812 4.625C18.6198 5.01042 18.8776 5.46615 19.0547 5.99219C19.2318 6.51302 19.3203 7.07812 19.3203 7.6875V7.86719C19.3203 8.47656 19.2318 9.04167 19.0547 9.5625C18.8776 10.0833 18.6198 10.5391 18.2812 10.9297C17.9479 11.3151 17.5443 11.6172 17.0703 11.8359C16.6016 12.0495 16.0703 12.1562 15.4766 12.1562C14.8828 12.1562 14.349 12.0495 13.875 11.8359C13.401 11.6172 12.9948 11.3151 12.6562 10.9297C12.3229 10.5391 12.0677 10.0833 11.8906 9.5625C11.7135 9.04167 11.625 8.47656 11.625 7.86719ZM13.0703 7.6875V7.86719C13.0703 8.28906 13.1198 8.6875 13.2188 9.0625C13.3177 9.43229 13.4661 9.76042 13.6641 10.0469C13.8672 10.3333 14.1198 10.5599 14.4219 10.7266C14.724 10.888 15.0755 10.9688 15.4766 10.9688C15.8724 10.9688 16.2188 10.888 16.5156 10.7266C16.8177 10.5599 17.0677 10.3333 17.2656 10.0469C17.4635 9.76042 17.612 9.43229 17.7109 9.0625C17.8151 8.6875 17.8672 8.28906 17.8672 7.86719V7.6875C17.8672 7.27083 17.8151 6.8776 17.7109 6.50781C17.612 6.13281 17.4609 5.80208 17.2578 5.51562C17.0599 5.22396 16.8099 4.99479 16.5078 4.82812C16.2109 4.66146 15.862 4.57812 15.4609 4.57812C15.0651 4.57812 14.7161 4.66146 14.4141 4.82812C14.1172 4.99479 13.8672 5.22396 13.6641 5.51562C13.4661 5.80208 13.3177 6.13281 13.2188 6.50781C13.1198 6.8776 13.0703 7.27083 13.0703 7.6875ZM28.6406 3.54688V4.65625H24.0703V3.54688H28.6406ZM25.6172 1.49219H27.0625V9.90625C27.0625 10.1927 27.1068 10.4089 27.1953 10.5547C27.2839 10.7005 27.3984 10.7969 27.5391 10.8438C27.6797 10.8906 27.8307 10.9141 27.9922 10.9141C28.112 10.9141 28.237 10.9036 28.3672 10.8828C28.5026 10.8568 28.6042 10.8359 28.6719 10.8203L28.6797 12C28.5651 12.0365 28.4141 12.0703 28.2266 12.1016C28.0443 12.138 27.8229 12.1562 27.5625 12.1562C27.2083 12.1562 26.8828 12.0859 26.5859 11.9453C26.2891 11.8047 26.0521 11.5703 25.875 11.2422C25.7031 10.9089 25.6172 10.4609 25.6172 9.89844V1.49219ZM29.7969 7.86719V7.6875C29.7969 7.07812 29.8854 6.51302 30.0625 5.99219C30.2396 5.46615 30.4948 5.01042 30.8281 4.625C31.1615 4.23438 31.5651 3.93229 32.0391 3.71875C32.513 3.5 33.0443 3.39062 33.6328 3.39062C34.2266 3.39062 34.7604 3.5 35.2344 3.71875C35.7135 3.93229 36.1198 4.23438 36.4531 4.625C36.7917 5.01042 37.0495 5.46615 37.2266 5.99219C37.4036 6.51302 37.4922 7.07812 37.4922 7.6875V7.86719C37.4922 8.47656 37.4036 9.04167 37.2266 9.5625C37.0495 10.0833 36.7917 10.5391 36.4531 10.9297C36.1198 11.3151 35.7161 11.6172 35.2422 11.8359C34.7734 12.0495 34.2422 12.1562 33.6484 12.1562C33.0547 12.1562 32.5208 12.0495 32.0469 11.8359C31.5729 11.6172 31.1667 11.3151 30.8281 10.9297C30.4948 10.5391 30.2396 10.0833 30.0625 9.5625C29.8854 9.04167 29.7969 8.47656 29.7969 7.86719ZM31.2422 7.6875V7.86719C31.2422 8.28906 31.2917 8.6875 31.3906 9.0625C31.4896 9.43229 31.638 9.76042 31.8359 10.0469C32.0391 10.3333 32.2917 10.5599 32.5938 10.7266C32.8958 10.888 33.2474 10.9688 33.6484 10.9688C34.0443 10.9688 34.3906 10.888 34.6875 10.7266C34.9896 10.5599 35.2396 10.3333 35.4375 10.0469C35.6354 9.76042 35.7839 9.43229 35.8828 9.0625C35.987 8.6875 36.0391 8.28906 36.0391 7.86719V7.6875C36.0391 7.27083 35.987 6.8776 35.8828 6.50781C35.7839 6.13281 35.6328 5.80208 35.4297 5.51562C35.2318 5.22396 34.9818 4.99479 34.6797 4.82812C34.3828 4.66146 34.0339 4.57812 33.6328 4.57812C33.237 4.57812 32.888 4.66146 32.5859 4.82812C32.2891 4.99479 32.0391 5.22396 31.8359 5.51562C31.638 5.80208 31.4896 6.13281 31.3906 6.50781C31.2917 6.8776 31.2422 7.27083 31.2422 7.6875ZM44.7188 0V12H43.2734V0H44.7188ZM44.375 7.45312L43.7734 7.42969C43.7786 6.85156 43.8646 6.31771 44.0312 5.82812C44.1979 5.33333 44.4323 4.90365 44.7344 4.53906C45.0365 4.17448 45.3958 3.89323 45.8125 3.69531C46.2344 3.49219 46.7005 3.39062 47.2109 3.39062C47.6276 3.39062 48.0026 3.44792 48.3359 3.5625C48.6693 3.67188 48.9531 3.84896 49.1875 4.09375C49.4271 4.33854 49.6094 4.65625 49.7344 5.04688C49.8594 5.43229 49.9219 5.90365 49.9219 6.46094V12H48.4688V6.44531C48.4688 6.0026 48.4036 5.64844 48.2734 5.38281C48.1432 5.11198 47.9531 4.91667 47.7031 4.79688C47.4531 4.67188 47.1458 4.60938 46.7812 4.60938C46.4219 4.60938 46.0938 4.6849 45.7969 4.83594C45.5052 4.98698 45.2526 5.19531 45.0391 5.46094C44.8307 5.72656 44.6667 6.03125 44.5469 6.375C44.4323 6.71354 44.375 7.07292 44.375 7.45312ZM51.7031 7.86719V7.6875C51.7031 7.07812 51.7917 6.51302 51.9688 5.99219C52.1458 5.46615 52.401 5.01042 52.7344 4.625C53.0677 4.23438 53.4714 3.93229 53.9453 3.71875C54.4193 3.5 54.9505 3.39062 55.5391 3.39062C56.1328 3.39062 56.6667 3.5 57.1406 3.71875C57.6198 3.93229 58.026 4.23438 58.3594 4.625C58.6979 5.01042 58.9557 5.46615 59.1328 5.99219C59.3099 6.51302 59.3984 7.07812 59.3984 7.6875V7.86719C59.3984 8.47656 59.3099 9.04167 59.1328 9.5625C58.9557 10.0833 58.6979 10.5391 58.3594 10.9297C58.026 11.3151 57.6224 11.6172 57.1484 11.8359C56.6797 12.0495 56.1484 12.1562 55.5547 12.1562C54.9609 12.1562 54.4271 12.0495 53.9531 11.8359C53.4792 11.6172 53.0729 11.3151 52.7344 10.9297C52.401 10.5391 52.1458 10.0833 51.9688 9.5625C51.7917 9.04167 51.7031 8.47656 51.7031 7.86719ZM53.1484 7.6875V7.86719C53.1484 8.28906 53.1979 8.6875 53.2969 9.0625C53.3958 9.43229 53.5443 9.76042 53.7422 10.0469C53.9453 10.3333 54.1979 10.5599 54.5 10.7266C54.8021 10.888 55.1536 10.9688 55.5547 10.9688C55.9505 10.9688 56.2969 10.888 56.5938 10.7266C56.8958 10.5599 57.1458 10.3333 57.3438 10.0469C57.5417 9.76042 57.6901 9.43229 57.7891 9.0625C57.8932 8.6875 57.9453 8.28906 57.9453 7.86719V7.6875C57.9453 7.27083 57.8932 6.8776 57.7891 6.50781C57.6901 6.13281 57.5391 5.80208 57.3359 5.51562C57.138 5.22396 56.888 4.99479 56.5859 4.82812C56.2891 4.66146 55.9401 4.57812 55.5391 4.57812C55.1432 4.57812 54.7943 4.66146 54.4922 4.82812C54.1953 4.99479 53.9453 5.22396 53.7422 5.51562C53.5443 5.80208 53.3958 6.13281 53.2969 6.50781C53.1979 6.8776 53.1484 7.27083 53.1484 7.6875ZM62.6484 5.22656V12H61.1953V3.54688H62.5703L62.6484 5.22656ZM62.3516 7.45312L61.6797 7.42969C61.6849 6.85156 61.7604 6.31771 61.9062 5.82812C62.0521 5.33333 62.2682 4.90365 62.5547 4.53906C62.8411 4.17448 63.1979 3.89323 63.625 3.69531C64.0521 3.49219 64.5469 3.39062 65.1094 3.39062C65.5052 3.39062 65.8698 3.44792 66.2031 3.5625C66.5365 3.67188 66.8255 3.84635 67.0703 4.08594C67.3151 4.32552 67.5052 4.63281 67.6406 5.00781C67.776 5.38281 67.8438 5.83594 67.8438 6.36719V12H66.3984V6.4375C66.3984 5.99479 66.3229 5.64062 66.1719 5.375C66.026 5.10938 65.8177 4.91667 65.5469 4.79688C65.276 4.67188 64.9583 4.60938 64.5938 4.60938C64.1667 4.60938 63.8099 4.6849 63.5234 4.83594C63.237 4.98698 63.0078 5.19531 62.8359 5.46094C62.6641 5.72656 62.5391 6.03125 62.4609 6.375C62.388 6.71354 62.3516 7.07292 62.3516 7.45312ZM67.8281 6.65625L66.8594 6.95312C66.8646 6.48958 66.9401 6.04427 67.0859 5.61719C67.237 5.1901 67.4531 4.8099 67.7344 4.47656C68.0208 4.14323 68.3724 3.88021 68.7891 3.6875C69.2057 3.48958 69.6823 3.39062 70.2188 3.39062C70.6719 3.39062 71.0729 3.45052 71.4219 3.57031C71.776 3.6901 72.0729 3.875 72.3125 4.125C72.5573 4.36979 72.7422 4.6849 72.8672 5.07031C72.9922 5.45573 73.0547 5.91406 73.0547 6.44531V12H71.6016V6.42969C71.6016 5.95573 71.526 5.58854 71.375 5.32812C71.2292 5.0625 71.0208 4.8776 70.75 4.77344C70.4844 4.66406 70.1667 4.60938 69.7969 4.60938C69.4792 4.60938 69.1979 4.66406 68.9531 4.77344C68.7083 4.88281 68.5026 5.03385 68.3359 5.22656C68.1693 5.41406 68.0417 5.63021 67.9531 5.875C67.8698 6.11979 67.8281 6.38021 67.8281 6.65625ZM78.75 12.1562C78.1615 12.1562 77.6276 12.0573 77.1484 11.8594C76.6745 11.6562 76.2656 11.3724 75.9219 11.0078C75.5833 10.6432 75.3229 10.2109 75.1406 9.71094C74.9583 9.21094 74.8672 8.66406 74.8672 8.07031V7.74219C74.8672 7.05469 74.9688 6.44271 75.1719 5.90625C75.375 5.36458 75.651 4.90625 76 4.53125C76.349 4.15625 76.7448 3.8724 77.1875 3.67969C77.6302 3.48698 78.0885 3.39062 78.5625 3.39062C79.1667 3.39062 79.6875 3.49479 80.125 3.70312C80.5677 3.91146 80.9297 4.20312 81.2109 4.57812C81.4922 4.94792 81.7005 5.38542 81.8359 5.89062C81.9714 6.39062 82.0391 6.9375 82.0391 7.53125V8.17969H75.7266V7H80.5938V6.89062C80.5729 6.51562 80.4948 6.15104 80.3594 5.79688C80.2292 5.44271 80.0208 5.15104 79.7344 4.92188C79.4479 4.69271 79.0573 4.57812 78.5625 4.57812C78.2344 4.57812 77.9323 4.64844 77.6562 4.78906C77.3802 4.92448 77.1432 5.1276 76.9453 5.39844C76.7474 5.66927 76.5938 6 76.4844 6.39062C76.375 6.78125 76.3203 7.23177 76.3203 7.74219V8.07031C76.3203 8.47135 76.375 8.84896 76.4844 9.20312C76.599 9.55208 76.763 9.85938 76.9766 10.125C77.1953 10.3906 77.4583 10.599 77.7656 10.75C78.0781 10.901 78.4323 10.9766 78.8281 10.9766C79.3385 10.9766 79.7708 10.8724 80.125 10.6641C80.4792 10.4557 80.7891 10.1771 81.0547 9.82812L81.9297 10.5234C81.7474 10.7995 81.5156 11.0625 81.2344 11.3125C80.9531 11.5625 80.6068 11.7656 80.1953 11.9219C79.7891 12.0781 79.3073 12.1562 78.75 12.1562Z" fill="#F1ECDA"/>
</svg>
