<svg width="74" height="16" viewBox="0 0 74 16" fill="none" xmlns="http://www.w3.org/2000/svg">
<path d="M0.931307 0.333679H10.9123V2.19522H6.98239V12.6888H4.82833V2.19522H0.914864L0.931307 0.333679ZM10.4848 3.74368H12.3264V5.47338H12.3593C12.425 5.22633 12.5401 4.99567 12.7046 4.76508C12.869 4.53442 13.0664 4.3203 13.313 4.13905C13.5432 3.9414 13.8062 3.79309 14.1022 3.6778C14.3818 3.5625 14.6777 3.49662 14.9737 3.49662C15.204 3.49662 15.3684 3.51309 15.4506 3.51309C15.5328 3.52956 15.6314 3.54603 15.7137 3.54603V5.44044C15.5821 5.4075 15.4341 5.39103 15.2862 5.37456C15.1381 5.35809 15.0066 5.34162 14.8586 5.34162C14.5298 5.34162 14.2173 5.4075 13.9214 5.53927C13.6254 5.6711 13.3787 5.86875 13.1486 6.11588C12.9348 6.37941 12.7539 6.69243 12.6224 7.07133C12.4908 7.45022 12.425 7.895 12.425 8.38919V12.6393H10.4519L10.4848 3.74368ZM24.7574 12.6888H22.8171V11.4368H22.7842C22.5375 11.898 22.1759 12.244 21.6989 12.524C21.2221 12.804 20.7288 12.9358 20.2355 12.9358C19.068 12.9358 18.213 12.6558 17.6868 12.0627C17.1607 11.4862 16.8975 10.5966 16.8975 9.42699V3.74368H18.8708V9.22934C18.8708 10.0201 19.0187 10.5802 19.3312 10.8932C19.6272 11.2226 20.0547 11.3874 20.5973 11.3874C21.0084 11.3874 21.3537 11.3215 21.6332 11.1896C21.9127 11.0579 22.1429 10.8932 22.3074 10.679C22.4882 10.4649 22.6034 10.2013 22.6856 9.90471C22.7678 9.60824 22.8007 9.27875 22.8007 8.9328V3.74368H24.7739V12.6888H24.7574ZM28.1118 9.82236C28.1775 10.399 28.3913 10.7943 28.7695 11.0414C29.1477 11.2721 29.6081 11.3874 30.1343 11.3874C30.3152 11.3874 30.529 11.3709 30.7591 11.3379C30.9894 11.305 31.2195 11.2556 31.4169 11.1732C31.6306 11.0908 31.7951 10.9755 31.9266 10.8108C32.0581 10.646 32.1239 10.4484 32.1075 10.2013C32.091 9.95419 32.0088 9.74 31.828 9.5753C31.647 9.41052 31.4333 9.29522 31.1702 9.17993C30.9072 9.08111 30.5947 8.99868 30.2494 8.9328C29.9041 8.86691 29.5588 8.78456 29.1971 8.70221C28.8353 8.61986 28.4735 8.52096 28.1282 8.40566C27.7829 8.29037 27.487 8.14206 27.2074 7.92794C26.9444 7.73022 26.7141 7.48316 26.5662 7.17015C26.4017 6.85721 26.3195 6.49478 26.3195 6.03353C26.3195 5.53927 26.4346 5.14397 26.6813 4.81449C26.9114 4.485 27.2239 4.2214 27.5856 4.02375C27.9474 3.82611 28.3585 3.6778 28.8024 3.59544C29.2464 3.51309 29.6739 3.48015 30.0686 3.48015C30.529 3.48015 30.9729 3.52956 31.384 3.62839C31.7951 3.72721 32.1897 3.87552 32.5185 4.10611C32.8639 4.3203 33.1434 4.61677 33.3571 4.96272C33.5874 5.30868 33.7189 5.73699 33.7847 6.23118H31.7293C31.6306 5.75346 31.4169 5.44044 31.088 5.27574C30.7427 5.11096 30.3645 5.0286 29.9205 5.0286C29.789 5.0286 29.6081 5.04508 29.4272 5.06155C29.2299 5.09449 29.0655 5.1275 28.8846 5.19338C28.7202 5.25927 28.5722 5.35809 28.4571 5.47338C28.342 5.58875 28.2763 5.75346 28.2763 5.95111C28.2763 6.19824 28.3585 6.37942 28.5229 6.52772C28.6873 6.67596 28.9011 6.79125 29.1806 6.90662C29.4437 7.00544 29.7561 7.0878 30.1014 7.15368C30.4468 7.21956 30.8084 7.30199 31.1702 7.38434C31.532 7.46669 31.8773 7.56552 32.2226 7.68081C32.5679 7.79618 32.8803 7.94441 33.1434 8.15861C33.4065 8.35625 33.6367 8.60338 33.8011 8.89986C33.9656 9.1964 34.0478 9.5753 34.0478 10.0036C34.0478 10.5307 33.9327 10.9755 33.686 11.3544C33.4393 11.7168 33.127 12.0298 32.7488 12.2604C32.3706 12.491 31.9266 12.6558 31.4662 12.7711C30.9894 12.8699 30.529 12.9358 30.0686 12.9358C29.5094 12.9358 28.9833 12.8699 28.5064 12.7382C28.0296 12.6064 27.6021 12.4087 27.2567 12.1616C26.9114 11.898 26.6319 11.585 26.4346 11.1896C26.2373 10.8108 26.1222 10.3496 26.1058 9.80589H28.0953V9.82236H28.1118ZM34.6068 3.74368H36.1032V1.04206H38.0763V3.72721H39.8522V5.19338H38.0763V9.97066C38.0763 10.1848 38.0928 10.3496 38.1092 10.5143C38.1257 10.6625 38.175 10.7943 38.2243 10.8932C38.2901 10.992 38.3888 11.0743 38.5039 11.1238C38.6354 11.1732 38.7999 11.2062 39.03 11.2062C39.1616 11.2062 39.3096 11.2062 39.4411 11.1896C39.5727 11.1732 39.7207 11.1567 39.8522 11.1238V12.6558C39.6385 12.6888 39.4247 12.7052 39.2109 12.7217C38.9971 12.7546 38.7999 12.7546 38.5696 12.7546C38.0435 12.7546 37.6324 12.7052 37.3199 12.6064C37.0076 12.5076 36.7609 12.3593 36.58 12.1781C36.3991 11.9804 36.284 11.7498 36.2183 11.4697C36.1525 11.1896 36.1196 10.8438 36.1032 10.4813V5.20986H34.6068V3.71074V3.74368ZM41.2334 3.74368H43.0915V4.96272H43.1244C43.4039 4.43559 43.7821 4.07316 44.2754 3.84258C44.7687 3.61191 45.2949 3.49662 45.8868 3.49662C46.5939 3.49662 47.2023 3.61191 47.7284 3.87552C48.2547 4.12258 48.6822 4.45206 49.0272 4.89684C49.3728 5.32515 49.6356 5.83581 49.8 6.41236C49.9644 6.98897 50.0635 7.61493 50.0635 8.25743C50.0635 8.86691 49.9813 9.44346 49.833 10.0036C49.6686 10.5637 49.4389 11.0743 49.1262 11.5026C48.8136 11.931 48.4187 12.2769 47.9258 12.5405C47.4325 12.804 46.8734 12.9359 46.2157 12.9358C45.9361 12.9358 45.6402 12.9029 45.3607 12.8535C45.0811 12.804 44.8016 12.7217 44.5385 12.6064C44.2754 12.491 44.0288 12.3428 43.815 12.1616C43.5848 11.9804 43.4039 11.7663 43.2559 11.5356H43.223V15.9999H41.2498V3.74368H41.2334ZM48.1231 8.22449C48.1231 7.82912 48.0738 7.43375 47.9587 7.05486C47.86 6.67596 47.6956 6.34647 47.4818 6.05C47.268 5.75346 47.005 5.5228 46.709 5.34162C46.3966 5.16044 46.0348 5.07802 45.6402 5.07802C44.8181 5.07802 44.1932 5.35809 43.7657 5.93464C43.3546 6.51125 43.1409 7.28552 43.1409 8.24096C43.1409 8.70221 43.1902 9.11405 43.3053 9.49294C43.4203 9.87177 43.5684 10.2013 43.7985 10.4813C44.0123 10.7613 44.2754 10.9755 44.5878 11.1402C44.9003 11.305 45.2456 11.3874 45.6567 11.3874C46.1171 11.3874 46.4788 11.2885 46.7912 11.1073C47.1036 10.9261 47.3503 10.679 47.564 10.399C47.7613 10.1024 47.9094 9.77294 47.9916 9.39405C48.0738 8.99868 48.1231 8.61986 48.1231 8.22449ZM51.5923 0.333753H53.5659V2.19522H51.5923V0.333753ZM51.5923 3.74368H53.5659V12.6888H51.5923V3.74368ZM55.3251 0.333753H57.2987V12.6888H55.3251V0.333753ZM63.3163 12.9359C62.6095 12.9359 61.9681 12.8205 61.4088 12.5735C60.8503 12.3263 60.3894 12.0133 59.9952 11.6015C59.6165 11.1896 59.3207 10.679 59.1233 10.1024C58.9266 9.52588 58.8114 8.88339 58.8114 8.20802C58.8114 7.53258 58.9097 6.90662 59.1233 6.33C59.3207 5.75346 59.6165 5.25927 59.9952 4.83096C60.3732 4.41912 60.8503 4.08964 61.4088 3.85905C61.9681 3.62839 62.6095 3.49662 63.3163 3.49662C64.0239 3.49662 64.6646 3.61191 65.2239 3.85905C65.7831 4.08964 66.2433 4.41912 66.6382 4.83096C67.0162 5.2428 67.3119 5.75346 67.5094 6.33C67.7068 6.90662 67.822 7.53258 67.822 8.20802C67.822 8.89986 67.7237 9.52588 67.5094 10.1024C67.2958 10.679 67.0162 11.1732 66.6382 11.6015C66.2602 12.0133 65.7831 12.3428 65.2239 12.5735C64.6646 12.804 64.04 12.9359 63.3163 12.9359ZM63.3163 11.3709C63.7442 11.3709 64.1391 11.2721 64.451 11.0908C64.7798 10.9096 65.0264 10.6625 65.2407 10.366C65.4543 10.0695 65.6018 9.72353 65.7009 9.3611C65.7993 8.98221 65.8492 8.60339 65.8492 8.20802C65.8492 7.82912 65.7993 7.45022 65.7009 7.07133C65.6018 6.69243 65.4543 6.36294 65.2407 6.06647C65.0264 5.76993 64.7637 5.53934 64.451 5.35809C64.1222 5.17691 63.7442 5.07802 63.3163 5.07802C62.8892 5.07802 62.4943 5.17691 62.1817 5.35809C61.8528 5.53934 61.6062 5.7864 61.3927 6.06647C61.1791 6.36294 61.0308 6.69243 60.9325 7.07133C60.8334 7.45022 60.7842 7.82912 60.7842 8.20802C60.7842 8.60339 60.8334 8.98221 60.9325 9.3611C61.0308 9.74 61.1791 10.0695 61.3927 10.366C61.6062 10.6625 61.8697 10.9096 62.1817 11.0908C62.5112 11.2885 62.8892 11.3709 63.3163 11.3709ZM68.4136 3.74368H69.9101V1.04206H71.8837V3.72721H73.6591V5.19338H71.8837V9.97066C71.8837 10.1848 71.8998 10.3496 71.9167 10.5143C71.9328 10.6625 71.982 10.7943 72.0312 10.8932C72.0973 10.992 72.1956 11.0743 72.3108 11.1238C72.4422 11.1732 72.6066 11.2062 72.8371 11.2062C72.9684 11.2062 73.1167 11.2062 73.2481 11.1897C73.3795 11.1732 73.5277 11.1567 73.6591 11.1238V12.6558C73.4455 12.6888 73.2319 12.7052 73.0184 12.7217C72.804 12.7546 72.6066 12.7546 72.3769 12.7546C71.8506 12.7546 71.4396 12.7052 71.127 12.6064C70.8143 12.5076 70.5677 12.3593 70.3872 12.1781C70.2066 11.9804 70.0914 11.7498 70.0253 11.4697C69.9593 11.1896 69.927 10.8438 69.9101 10.4813V5.20986H68.4136V3.71074V3.74368Z" fill="#D5E27B"/>
</svg>
