<svg width="119" height="17" viewBox="0 0 119 17" fill="none" xmlns="http://www.w3.org/2000/svg">
<path d="M8.46533 12.3479L12.0374 11.4394L13.5303 16.0469L8.46533 12.3479ZM16.6811 6.39531H10.3941L8.46533 0.462769L6.53137 6.39531H0.243668L5.33431 10.0692L3.40037 16.0018L8.49028 12.3278L11.6213 10.0743L16.6811 6.39531ZM33.9053 12.3479L37.4774 11.4394L38.9703 16.0469L33.9053 12.3479ZM42.1211 6.39531H35.8393L33.9053 0.462769L31.9714 6.39531H25.6837L30.7743 10.0692L28.8404 16.0018L33.9303 12.3278L37.0613 10.0743L42.1211 6.39531ZM59.3453 12.3479L62.9174 11.4394L64.4103 16.0469L59.3453 12.3479ZM67.5662 6.39531H61.2793L59.3453 0.462769L57.4114 6.39531H51.1237L56.2143 10.0692L54.2804 16.0018L59.3703 12.3278L62.5013 10.0743L67.5662 6.39531ZM84.7853 12.3479L88.3574 11.4394L89.8503 16.0469L84.7853 12.3479ZM93.0062 6.39531H86.7185L84.7853 0.462769L82.8514 6.39531H76.5637L81.6543 10.0692L79.7204 16.0018L84.8103 12.3278L87.9413 10.0743L93.0062 6.39531ZM110.225 12.3479L113.797 11.4394L115.29 16.0469L110.225 12.3479ZM118.446 6.39531H112.159L110.225 0.462769L108.291 6.39531H102.004L107.094 10.0692L105.16 16.0018L110.25 12.3278L113.381 10.0743L118.446 6.39531Z" fill="#25201F"/>
</svg>
